<?xml version="1.0" encoding="UTF-8" standalone="no"?>
<svg
   xmlns:dc="http://purl.org/dc/elements/1.1/"
   xmlns:cc="http://creativecommons.org/ns#"
   xmlns:rdf="http://www.w3.org/1999/02/22-rdf-syntax-ns#"
   xmlns:svg="http://www.w3.org/2000/svg"
   xmlns="http://www.w3.org/2000/svg"
   xmlns:sodipodi="http://sodipodi.sourceforge.net/DTD/sodipodi-0.dtd"
   xmlns:inkscape="http://www.inkscape.org/namespaces/inkscape"
   width="569.63pt"
   height="88.92pt"
   viewBox="0 0 569.63 88.92"
   version="1.2"
   id="svg99"
   sodipodi:docname="MPS_Logo_HKS47K.svg"
   inkscape:version="0.92.3 (2405546, 2018-03-11)">
  <metadata
     id="metadata103">
    <rdf:RDF>
      <cc:Work
         rdf:about="">
        <dc:format>image/svg+xml</dc:format>
        <dc:type
           rdf:resource="http://purl.org/dc/dcmitype/StillImage" />
        <dc:title></dc:title>
      </cc:Work>
    </rdf:RDF>
  </metadata>
  <sodipodi:namedview
     pagecolor="#ffffff"
     bordercolor="#666666"
     borderopacity="1"
     objecttolerance="10"
     gridtolerance="10"
     guidetolerance="10"
     inkscape:pageopacity="0"
     inkscape:pageshadow="2"
     inkscape:window-width="1920"
     inkscape:window-height="1017"
     id="namedview101"
     showgrid="false"
     inkscape:zoom="1.6432291"
     inkscape:cx="389.72105"
     inkscape:cy="54.846538"
     inkscape:window-x="-8"
     inkscape:window-y="-8"
     inkscape:window-maximized="1"
     inkscape:current-layer="svg99" />
  <defs
     id="defs16">
    <clipPath
       id="clip1">
      <path
         d="M 530 0 L 569.628906 0 L 569.628906 61 L 530 61 Z M 530 0 "
         id="path10" />
    </clipPath>
    <clipPath
       id="clip2">
      <path
         d="M 202 71 L 217 71 L 217 88.921875 L 202 88.921875 Z M 202 71 "
         id="path13" />
    </clipPath>
  </defs>
  <g
     id="surface5565">
    <path
       style=" stroke:none;fill-rule:nonzero;fill:rgb(0%,67.83905%,93.728638%);fill-opacity:1;"
       d="M 185.953125 39.941406 L 185.015625 32.910156 C 184.992188 32.882813 184.945313 32.53125 184.878906 31.855469 C 184.828125 31.28125 184.585938 29.015625 184.144531 25.058594 C 184.101563 24.617188 184.042969 24.011719 183.972656 23.242188 C 183.902344 22.472656 183.808594 21.503906 183.695313 20.332031 L 183.242188 14.628906 C 183.195313 15.175781 183.132813 15.789063 183.050781 16.464844 C 182.96875 17.140625 182.882813 17.882813 182.789063 18.691406 C 182.628906 20.304688 182.511719 21.425781 182.441406 22.050781 C 182.371094 22.675781 182.328125 23.054688 182.304688 23.183594 L 181.296875 30.488281 L 179.835938 39.941406 Z M 203.714844 60.503906 L 188.734375 60.503906 L 187.65625 52.628906 L 177.890625 52.628906 L 176.707031 60.503906 L 161.726563 60.503906 L 174.621094 0.191406 L 192.351563 0.191406 L 203.714844 60.503906 "
       id="path18" />
    <path
       style=" stroke:none;fill-rule:nonzero;fill:rgb(0%,67.83905%,93.728638%);fill-opacity:1;"
       d="M 220.984375 25.941406 L 241.675781 25.941406 L 241.675781 28.414063 C 241.675781 39.910156 240.101563 48.179688 236.945313 53.230469 C 233.511719 58.746094 228.425781 61.503906 221.695313 61.503906 C 215.082031 61.503906 209.890625 58.8125 206.121094 53.425781 C 202.378906 47.992188 200.507813 40.53125 200.507813 31.042969 C 200.507813 21.425781 202.390625 13.851563 206.15625 8.3125 C 209.925781 2.773438 215.082031 0.00390625 221.625 0.00390625 C 230.300781 0.00390625 236.59375 5.03125 240.503906 15.089844 L 226.140625 20.988281 C 225.925781 19.046875 225.433594 17.515625 224.664063 16.386719 C 223.894531 15.257813 222.929688 14.691406 221.765625 14.691406 C 217.6875 14.691406 215.652344 20.609375 215.652344 32.441406 C 215.652344 37.472656 216.101563 41.125 217.003906 43.402344 C 217.902344 45.679688 219.335938 46.816406 221.304688 46.816406 C 222.085938 46.816406 222.796875 46.628906 223.4375 46.25 C 224.078125 45.871094 224.617188 45.339844 225.054688 44.65625 C 225.492188 43.96875 225.835938 43.136719 226.085938 42.15625 C 226.335938 41.175781 226.460938 40.082031 226.460938 38.878906 L 220.984375 38.878906 L 220.984375 25.941406 "
       id="path20" />
    <path
       style=" stroke:none;fill-rule:nonzero;fill:rgb(0%,67.83905%,93.728638%);fill-opacity:1;"
       d="M 243.320313 60.503906 L 243.320313 0.191406 L 257.160156 0.191406 L 264.414063 21.363281 C 264.804688 22.613281 265.25 24.046875 265.75 25.660156 C 266.246094 27.273438 266.796875 29.136719 267.398438 31.246094 L 268.890625 36.558594 C 268.359375 31.324219 267.953125 26.84375 267.675781 23.121094 C 267.398438 19.398438 267.257813 16.273438 267.257813 13.746094 L 267.257813 0.191406 L 281.257813 0.191406 L 281.257813 60.503906 L 267.257813 60.503906 L 259.53125 38.316406 C 258.722656 35.945313 257.992188 33.726563 257.34375 31.65625 C 256.691406 29.585938 256.125 27.613281 255.632813 25.738281 C 256.21875 29.984375 256.644531 33.679688 256.914063 36.832031 C 257.183594 39.984375 257.320313 42.742188 257.320313 45.113281 L 257.320313 60.503906 L 243.320313 60.503906 "
       id="path22" />
    <path
       style=" stroke:none;fill-rule:nonzero;fill:rgb(0%,67.83905%,93.728638%);fill-opacity:1;"
       d="M 284.636719 60.503906 L 284.636719 0.191406 L 311.574219 0.191406 L 311.574219 14.691406 L 299.132813 14.691406 L 299.132813 22.316406 L 310.289063 22.316406 L 310.289063 36.816406 L 299.132813 36.816406 L 299.132813 46.003906 L 311.574219 46.003906 L 311.574219 60.503906 L 284.636719 60.503906 "
       id="path24" />
    <path
       style=" stroke:none;fill-rule:nonzero;fill:rgb(0%,67.83905%,93.728638%);fill-opacity:1;"
       d="M 336.363281 60.503906 L 321.867188 60.503906 L 321.867188 14.691406 L 313.871094 14.691406 L 313.871094 0.191406 L 344.671875 0.191406 L 344.671875 14.691406 L 336.363281 14.691406 L 336.363281 60.503906 "
       id="path26" />
    <path
       style=" stroke:none;fill-rule:nonzero;fill:rgb(0%,67.83905%,93.728638%);fill-opacity:1;"
       d="M 359.597656 43.066406 L 340.617188 43.066406 L 340.617188 30.316406 L 359.597656 30.316406 L 359.597656 43.066406 "
       id="path28" />
    <path
       style=" stroke:none;fill-rule:nonzero;fill:rgb(0%,67.83905%,93.728638%);fill-opacity:1;"
       d="M 377.84375 27.191406 L 378.503906 27.230469 C 380.265625 27.230469 381.667969 26.625 382.710938 25.414063 C 383.753906 24.203125 384.273438 22.542969 384.273438 20.433594 C 384.273438 18.351563 383.765625 16.65625 382.746094 15.355469 C 381.726563 14.027344 380.429688 13.363281 378.851563 13.363281 L 377.84375 13.363281 Z M 377.84375 60.503906 L 363.351563 60.503906 L 363.351563 0.191406 L 377.394531 0.191406 C 384.390625 0.191406 389.582031 1.757813 392.964844 4.894531 C 396.949219 8.589844 398.941406 13.726563 398.941406 20.300781 C 398.941406 27.464844 396.820313 32.804688 392.582031 36.324219 C 389.6875 38.695313 385.523438 39.878906 380.105469 39.878906 L 377.84375 39.878906 L 377.84375 60.503906 "
       id="path30" />
    <path
       style=" stroke:none;fill-rule:nonzero;fill:rgb(0%,67.83905%,93.728638%);fill-opacity:1;"
       d="M 438.007813 60.503906 L 423.515625 60.503906 L 423.515625 36.253906 L 416.597656 36.253906 L 416.597656 60.503906 L 402.101563 60.503906 L 402.101563 0.191406 L 416.597656 0.191406 L 416.597656 21.753906 L 423.515625 21.753906 L 423.515625 0.191406 L 438.007813 0.191406 L 438.007813 60.503906 "
       id="path32" />
    <path
       style=" stroke:none;fill-rule:nonzero;fill:rgb(0%,67.83905%,93.728638%);fill-opacity:1;"
       d="M 468.082031 60.503906 L 453.589844 60.503906 L 453.589844 34.957031 L 440.273438 0.191406 L 455.394531 0.191406 L 458.003906 9.136719 C 458.511719 10.882813 458.96875 12.5625 459.375 14.175781 C 459.78125 15.789063 460.144531 17.339844 460.472656 18.824219 C 461.003906 16.609375 461.46875 14.703125 461.859375 13.101563 C 462.253906 11.5 462.601563 10.203125 462.902344 9.214844 L 465.546875 0.191406 L 480.5625 0.191406 L 468.082031 34.957031 L 468.082031 60.503906 "
       id="path34" />
    <path
       style=" stroke:none;fill-rule:nonzero;fill:rgb(0%,67.83905%,93.728638%);fill-opacity:1;"
       d="M 480.035156 58.035156 L 480.035156 39.441406 C 482.886719 43.816406 485.96875 46.003906 489.28125 46.003906 C 490.535156 46.003906 491.554688 45.644531 492.34375 44.929688 C 493.128906 44.214844 493.523438 43.320313 493.523438 42.238281 C 493.523438 40.683594 492.664063 39.164063 490.949219 37.683594 L 488.589844 35.6875 C 487.011719 34.410156 485.667969 33.136719 484.554688 31.867188 C 483.441406 30.601563 482.539063 29.296875 481.84375 27.953125 C 481.148438 26.609375 480.640625 25.222656 480.3125 23.792969 C 479.988281 22.363281 479.828125 20.859375 479.828125 19.277344 C 479.828125 16.566406 480.40625 13.730469 481.566406 10.769531 C 482.144531 9.390625 482.816406 8.128906 483.582031 6.984375 C 484.347656 5.84375 485.226563 4.835938 486.222656 3.957031 C 488.957031 1.445313 492.261719 0.191406 496.128906 0.191406 C 499.582031 0.191406 503.058594 1.195313 506.558594 3.199219 L 506.558594 21.332031 C 505.375 19.273438 504.03125 17.652344 502.523438 16.46875 C 501.019531 15.285156 499.535156 14.691406 498.078125 14.691406 C 496.964844 14.691406 496.050781 15.042969 495.332031 15.742188 C 494.589844 16.421875 494.21875 17.234375 494.21875 18.1875 C 494.21875 19.742188 495.203125 21.285156 497.171875 22.816406 L 499.46875 24.660156 C 502.523438 27.042969 504.714844 29.484375 506.035156 31.992188 C 507.382813 34.5 508.054688 37.433594 508.054688 40.792969 C 508.054688 46.511719 506.441406 51.226563 503.222656 54.9375 C 500 58.648438 495.921875 60.503906 490.984375 60.503906 C 487.578125 60.503906 483.929688 59.679688 480.035156 58.035156 "
       id="path36" />
    <path
       style=" stroke:none;fill-rule:nonzero;fill:rgb(0%,67.83905%,93.728638%);fill-opacity:1;"
       d="M 526.296875 60.503906 L 511.800781 60.503906 L 511.800781 0.191406 L 526.296875 0.191406 L 526.296875 60.503906 "
       id="path38" />
    <g
       clip-path="url(#clip1)"
       clip-rule="nonzero"
       id="g42">
      <path
         style=" stroke:none;fill-rule:nonzero;fill:rgb(0%,67.83905%,93.728638%);fill-opacity:1;"
         d="M 569.632813 60.503906 L 553.988281 60.503906 L 544.359375 32.691406 L 544.742188 60.503906 L 530.25 60.503906 L 530.25 0.191406 L 544.742188 0.191406 L 544.359375 26.050781 L 552.910156 0.191406 L 568.207031 0.191406 L 556.632813 29.292969 L 569.632813 60.503906 "
         id="path40" />
    </g>
    <path
       style=" stroke:none;fill-rule:nonzero;fill:rgb(0%,67.83905%,93.728638%);fill-opacity:1;"
       d="M 105.859375 60.667969 L 120.632813 60.667969 L 120.632813 18.480469 C 120.632813 18.480469 120.75 15.761719 123.113281 15.761719 C 125.476563 15.761719 125.476563 18.480469 125.476563 18.480469 L 125.476563 60.667969 L 140.601563 60.667969 L 140.484375 18.597656 C 140.484375 18.597656 140.367188 15.644531 142.613281 15.644531 C 144.855469 15.644531 144.621094 18.480469 144.621094 18.480469 L 144.621094 60.667969 L 160.574219 60.667969 L 160.574219 0.398438 L 120.140625 0.28125 C 120.140625 0.28125 105.890625 0.351563 105.859375 15.644531 C 105.835938 27.226563 105.859375 60.667969 105.859375 60.667969 "
       id="path44" />
    <path
       style=" stroke:none;fill-rule:nonzero;fill:rgb(0%,67.83905%,93.728638%);fill-opacity:1;"
       d="M 111.398438 79.390625 C 113.539063 79.3125 114.609375 77.90625 114.609375 75.167969 C 114.609375 73.820313 114.335938 72.753906 113.792969 71.972656 C 113.246094 71.1875 112.511719 70.792969 111.585938 70.792969 L 111.398438 70.792969 Z M 105.421875 83.4375 L 105.421875 66.546875 L 110.582031 66.546875 C 113.535156 66.546875 115.832031 67.152344 117.476563 68.363281 C 119.636719 69.945313 120.714844 72.160156 120.714844 75.003906 C 120.714844 77.804688 119.804688 79.96875 117.976563 81.492188 C 116.421875 82.789063 114.097656 83.4375 111.011719 83.4375 L 105.421875 83.4375 "
       id="path46" />
    <path
       style=" stroke:none;fill-rule:nonzero;fill:rgb(0%,67.83905%,93.728638%);fill-opacity:1;"
       d="M 128.007813 83.4375 L 122.242188 83.4375 L 122.242188 71.609375 L 128.007813 71.609375 L 127.707031 73.917969 C 128.574219 72.191406 130.015625 71.328125 132.019531 71.328125 L 132.019531 76.253906 C 131.390625 75.988281 130.855469 75.859375 130.414063 75.859375 C 129.640625 75.859375 129.046875 76.070313 128.632813 76.5 C 128.214844 76.925781 128.007813 77.546875 128.007813 78.363281 L 128.007813 83.4375 "
       id="path48" />
    <path
       style=" stroke:none;fill-rule:nonzero;fill:rgb(0%,67.83905%,93.728638%);fill-opacity:1;"
       d="M 138.113281 80.929688 C 138.113281 81.621094 137.78125 82.210938 137.121094 82.703125 C 136.480469 83.191406 135.695313 83.4375 134.765625 83.4375 C 133.847656 83.4375 133.046875 83.191406 132.367188 82.691406 C 131.707031 82.183594 131.378906 81.570313 131.378906 80.851563 C 131.378906 80.148438 131.703125 79.546875 132.355469 79.046875 C 133.003906 78.546875 133.789063 78.296875 134.710938 78.296875 C 135.65625 78.296875 136.460938 78.554688 137.121094 79.070313 C 137.78125 79.574219 138.113281 80.195313 138.113281 80.929688 "
       id="path50" />
    <path
       style=" stroke:none;fill-rule:nonzero;fill:rgb(0%,67.83905%,93.728638%);fill-opacity:1;"
       d="M 142.445313 82.75 L 142.445313 77.554688 C 143.621094 78.78125 144.894531 79.390625 146.257813 79.390625 C 146.773438 79.390625 147.195313 79.292969 147.519531 79.089844 C 147.847656 78.890625 148.007813 78.640625 148.007813 78.335938 C 148.007813 77.902344 147.652344 77.476563 146.945313 77.058594 L 145.972656 76.5 C 145.320313 76.140625 144.769531 75.785156 144.308594 75.429688 C 143.851563 75.074219 143.476563 74.707031 143.191406 74.332031 C 142.902344 73.957031 142.695313 73.566406 142.5625 73.164063 C 142.425781 72.765625 142.359375 72.34375 142.359375 71.898438 C 142.359375 71.140625 142.597656 70.34375 143.078125 69.515625 C 143.316406 69.125 143.59375 68.773438 143.90625 68.453125 C 144.222656 68.132813 144.585938 67.851563 144.996094 67.605469 C 146.125 66.898438 147.488281 66.546875 149.082031 66.546875 C 150.507813 66.546875 151.941406 66.828125 153.382813 67.386719 L 153.382813 72.453125 C 152.894531 71.878906 152.34375 71.425781 151.722656 71.09375 C 151.101563 70.761719 150.488281 70.59375 149.886719 70.59375 C 149.425781 70.59375 149.050781 70.695313 148.753906 70.890625 C 148.445313 71.082031 148.296875 71.308594 148.296875 71.574219 C 148.296875 72.011719 148.699219 72.445313 149.511719 72.871094 L 150.460938 73.390625 C 151.722656 74.058594 152.625 74.742188 153.167969 75.445313 C 153.722656 76.148438 154 76.972656 154 77.914063 C 154 79.515625 153.335938 80.839844 152.007813 81.878906 C 150.679688 82.917969 148.996094 83.4375 146.960938 83.4375 C 145.558594 83.4375 144.050781 83.210938 142.445313 82.75 "
       id="path52" />
    <path
       style=" stroke:none;fill-rule:nonzero;fill:rgb(0%,67.83905%,93.728638%);fill-opacity:1;"
       d="M 162.132813 83.4375 L 156.367188 83.4375 L 156.367188 75.15625 L 154.730469 75.15625 L 154.730469 71.609375 L 156.367188 71.609375 L 156.367188 68.125 L 162.132813 68.125 L 162.132813 71.609375 L 164.039063 71.609375 L 164.039063 75.15625 L 162.132813 75.15625 L 162.132813 83.4375 "
       id="path54" />
    <path
       style=" stroke:none;fill-rule:nonzero;fill:rgb(0%,67.83905%,93.728638%);fill-opacity:1;"
       d="M 173.019531 75.96875 C 173.019531 75.8125 172.984375 75.667969 172.917969 75.539063 C 172.851563 75.40625 172.757813 75.292969 172.640625 75.199219 C 172.519531 75.105469 172.378906 75.03125 172.214844 74.976563 C 172.054688 74.917969 171.875 74.890625 171.6875 74.890625 C 171.285156 74.890625 170.960938 74.992188 170.710938 75.195313 C 170.460938 75.398438 170.339844 75.65625 170.339844 75.96875 Z M 172.90625 79.445313 L 178.527344 79.53125 C 178.128906 80.828125 177.34375 81.804688 176.183594 82.457031 C 175.023438 83.113281 173.507813 83.4375 171.632813 83.4375 C 169.410156 83.4375 167.667969 82.933594 166.402344 81.925781 C 165.148438 80.902344 164.519531 79.503906 164.519531 77.730469 C 164.519531 75.929688 165.195313 74.460938 166.546875 73.324219 C 167.898438 72.183594 169.640625 71.609375 171.777344 71.609375 C 173.898438 71.609375 175.589844 72.164063 176.851563 73.269531 C 178.113281 74.386719 178.742188 75.863281 178.742188 77.703125 L 178.714844 78.453125 L 170.285156 78.453125 C 170.351563 79.589844 170.800781 80.15625 171.632813 80.15625 C 172.28125 80.15625 172.707031 79.921875 172.90625 79.445313 "
       id="path56" />
    <path
       style=" stroke:none;fill-rule:nonzero;fill:rgb(0%,67.83905%,93.728638%);fill-opacity:1;"
       d="M 185.90625 83.4375 L 180.140625 83.4375 L 180.140625 71.613281 L 185.90625 71.613281 Z M 186.394531 67.945313 C 186.394531 68.640625 186.0625 69.238281 185.402344 69.742188 C 184.726563 70.238281 183.9375 70.484375 183.039063 70.484375 C 182.109375 70.484375 181.316406 70.234375 180.65625 69.730469 C 180.007813 69.210938 179.683594 68.605469 179.683594 67.914063 C 179.683594 67.207031 180.007813 66.605469 180.65625 66.109375 C 181.335938 65.613281 182.125 65.363281 183.023438 65.363281 C 183.96875 65.363281 184.769531 65.617188 185.417969 66.121094 C 186.066406 66.617188 186.394531 67.226563 186.394531 67.945313 "
       id="path58" />
    <path
       style=" stroke:none;fill-rule:nonzero;fill:rgb(0%,67.83905%,93.728638%);fill-opacity:1;"
       d="M 202.007813 83.4375 L 196.242188 83.4375 L 196.242188 77.179688 C 196.242188 76.640625 196.15625 76.265625 195.980469 76.054688 C 195.804688 75.84375 195.496094 75.738281 195.058594 75.738281 C 194.035156 75.738281 193.523438 76.316406 193.523438 77.476563 L 193.523438 83.4375 L 187.757813 83.4375 L 187.757813 71.609375 L 193.523438 71.609375 C 193.515625 71.902344 193.507813 72.171875 193.496094 72.421875 C 193.484375 72.667969 193.472656 72.898438 193.453125 73.109375 L 193.394531 73.863281 C 194.386719 72.363281 195.84375 71.609375 197.765625 71.609375 C 199.105469 71.609375 200.144531 71.957031 200.882813 72.648438 C 201.632813 73.34375 202.007813 74.308594 202.007813 75.542969 L 202.007813 83.4375 "
       id="path60" />
    <g
       clip-path="url(#clip2)"
       clip-rule="nonzero"
       id="g64">
      <path
         style=" stroke:none;fill-rule:nonzero;fill:rgb(0%,67.83905%,93.728638%);fill-opacity:1;"
         d="M 211.402344 77.488281 C 211.402344 75.78125 210.992188 74.925781 210.171875 74.925781 C 209.242188 74.925781 208.78125 75.757813 208.78125 77.421875 C 208.78125 79.136719 209.230469 79.992188 210.128906 79.992188 C 210.976563 79.992188 211.402344 79.15625 211.402344 77.488281 Z M 216.980469 71.613281 L 216.980469 83.777344 C 216.980469 84.703125 216.8125 85.507813 216.480469 86.183594 C 216.144531 86.8125 215.597656 87.347656 214.84375 87.792969 C 213.574219 88.542969 211.957031 88.921875 210 88.921875 C 207.886719 88.921875 206.265625 88.574219 205.140625 87.882813 C 204.011719 87.1875 203.3125 86.109375 203.046875 84.640625 L 208.921875 84.640625 C 208.960938 85.285156 209.363281 85.605469 210.128906 85.605469 C 210.613281 85.605469 210.960938 85.476563 211.160156 85.21875 C 211.359375 84.957031 211.460938 84.53125 211.460938 83.929688 L 211.460938 82.0625 C 210.4375 83.082031 209.234375 83.59375 207.847656 83.59375 C 206.347656 83.59375 205.132813 83.035156 204.207031 81.917969 C 203.289063 80.800781 202.832031 79.335938 202.832031 77.519531 C 202.832031 75.710938 203.289063 74.230469 204.207031 73.078125 C 205.132813 71.933594 206.332031 71.359375 207.804688 71.359375 C 208.484375 71.359375 209.074219 71.492188 209.582031 71.753906 C 210.109375 72.023438 210.675781 72.496094 211.289063 73.164063 L 211.175781 71.613281 L 216.980469 71.613281 "
         id="path62" />
    </g>
    <path
       style=" stroke:none;fill-rule:nonzero;fill:rgb(0%,67.83905%,93.728638%);fill-opacity:1;"
       d="M 225.058594 83.4375 L 219.292969 83.4375 L 219.292969 71.609375 L 225.058594 71.609375 L 224.757813 73.917969 C 225.628906 72.191406 227.066406 71.328125 229.074219 71.328125 L 229.074219 76.253906 C 228.441406 75.988281 227.90625 75.859375 227.46875 75.859375 C 226.695313 75.859375 226.101563 76.070313 225.683594 76.5 C 225.269531 76.925781 225.058594 77.546875 225.058594 78.363281 L 225.058594 83.4375 "
       id="path66" />
    <path
       style=" stroke:none;fill-rule:nonzero;fill:rgb(0%,67.83905%,93.728638%);fill-opacity:1;"
       d="M 238.5625 77.554688 C 238.5625 77.152344 238.527344 76.785156 238.457031 76.460938 C 238.386719 76.132813 238.28125 75.855469 238.144531 75.625 C 238.011719 75.390625 237.851563 75.210938 237.660156 75.082031 C 237.472656 74.957031 237.261719 74.890625 237.027344 74.890625 C 236.566406 74.890625 236.199219 75.132813 235.921875 75.617188 C 235.640625 76.042969 235.503906 76.675781 235.503906 77.523438 C 235.503906 78.359375 235.640625 78.996094 235.921875 79.429688 C 236.199219 79.914063 236.574219 80.15625 237.039063 80.15625 C 237.480469 80.15625 237.847656 79.917969 238.132813 79.441406 C 238.421875 78.910156 238.5625 78.28125 238.5625 77.554688 Z M 244.328125 77.703125 C 244.328125 79.453125 243.660156 80.847656 242.324219 81.882813 C 240.988281 82.921875 239.199219 83.4375 236.953125 83.4375 C 234.746094 83.4375 232.988281 82.910156 231.683594 81.851563 C 230.386719 80.789063 229.738281 79.359375 229.738281 77.566406 C 229.738281 75.773438 230.398438 74.335938 231.726563 73.25 C 233.042969 72.15625 234.789063 71.609375 236.96875 71.609375 C 239.261719 71.609375 241.0625 72.152344 242.371094 73.238281 C 243.675781 74.324219 244.328125 75.8125 244.328125 77.703125 "
       id="path68" />
    <path
       style=" stroke:none;fill-rule:nonzero;fill:rgb(0%,67.83905%,93.728638%);fill-opacity:1;"
       d="M 269.976563 83.4375 L 263.96875 83.4375 L 259.695313 71.609375 L 265.515625 71.609375 L 266.40625 75.066406 C 266.53125 75.511719 266.644531 76.066406 266.75 76.726563 C 266.855469 77.386719 266.960938 78.175781 267.066406 79.09375 C 267.199219 78.253906 267.328125 77.527344 267.453125 76.90625 C 267.578125 76.285156 267.699219 75.753906 267.824219 75.308594 L 268.8125 71.609375 L 274.492188 71.609375 L 269.976563 83.4375 "
       id="path70" />
    <path
       style=" stroke:none;fill-rule:nonzero;fill:rgb(0%,67.83905%,93.728638%);fill-opacity:1;"
       d="M 282.804688 75.96875 C 282.804688 75.8125 282.769531 75.667969 282.703125 75.539063 C 282.636719 75.40625 282.542969 75.292969 282.425781 75.199219 C 282.304688 75.105469 282.164063 75.03125 282 74.976563 C 281.839844 74.917969 281.660156 74.890625 281.46875 74.890625 C 281.070313 74.890625 280.746094 74.992188 280.496094 75.195313 C 280.246094 75.398438 280.121094 75.65625 280.121094 75.96875 Z M 282.695313 79.445313 L 288.3125 79.53125 C 287.910156 80.828125 287.128906 81.804688 285.96875 82.457031 C 284.808594 83.113281 283.289063 83.4375 281.417969 83.4375 C 279.195313 83.4375 277.453125 82.933594 276.1875 81.925781 C 274.933594 80.902344 274.304688 79.503906 274.304688 77.730469 C 274.304688 75.929688 274.980469 74.460938 276.332031 73.324219 C 277.683594 72.183594 279.425781 71.609375 281.5625 71.609375 C 283.683594 71.609375 285.375 72.164063 286.636719 73.269531 C 287.898438 74.386719 288.527344 75.863281 288.527344 77.703125 L 288.5 78.453125 L 280.070313 78.453125 C 280.136719 79.589844 280.585938 80.15625 281.417969 80.15625 C 282.066406 80.15625 282.492188 79.921875 282.695313 79.445313 "
       id="path72" />
    <path
       style=" stroke:none;fill-rule:nonzero;fill:rgb(0%,67.83905%,93.728638%);fill-opacity:1;"
       d="M 295.6875 83.4375 L 289.921875 83.4375 L 289.921875 71.609375 L 295.6875 71.609375 L 295.386719 73.917969 C 296.253906 72.191406 297.691406 71.328125 299.699219 71.328125 L 299.699219 76.253906 C 299.070313 75.988281 298.535156 75.859375 298.09375 75.859375 C 297.320313 75.859375 296.726563 76.070313 296.308594 76.5 C 295.894531 76.925781 295.6875 77.546875 295.6875 78.363281 L 295.6875 83.4375 "
       id="path74" />
    <path
       style=" stroke:none;fill-rule:nonzero;fill:rgb(0%,67.83905%,93.728638%);fill-opacity:1;"
       d="M 313.4375 73.671875 L 321.78125 73.671875 L 321.78125 74.351563 C 321.78125 77.507813 321.144531 79.78125 319.871094 81.167969 C 318.488281 82.683594 316.4375 83.4375 313.722656 83.4375 C 311.058594 83.4375 308.964844 82.699219 307.445313 81.222656 C 305.933594 79.726563 305.179688 77.679688 305.179688 75.074219 C 305.179688 72.433594 305.9375 70.351563 307.457031 68.828125 C 308.976563 67.308594 311.058594 66.546875 313.695313 66.546875 C 317.191406 66.546875 319.730469 67.933594 321.308594 70.703125 L 315.515625 72.324219 C 315.429688 71.792969 315.230469 71.371094 314.921875 71.058594 C 314.609375 70.75 314.21875 70.59375 313.753906 70.59375 C 312.109375 70.59375 311.285156 72.214844 311.285156 75.457031 C 311.285156 76.832031 311.46875 77.832031 311.832031 78.457031 C 312.195313 79.082031 312.773438 79.390625 313.566406 79.390625 C 313.882813 79.390625 314.167969 79.339844 314.425781 79.238281 C 314.683594 79.132813 314.902344 78.988281 315.078125 78.800781 C 315.253906 78.613281 315.394531 78.386719 315.492188 78.117188 C 315.59375 77.847656 315.644531 77.550781 315.644531 77.21875 L 313.4375 77.21875 L 313.4375 73.671875 "
       id="path76" />
    <path
       style=" stroke:none;fill-rule:nonzero;fill:rgb(0%,67.83905%,93.728638%);fill-opacity:1;"
       d="M 345.039063 83.4375 L 339.273438 83.4375 L 339.273438 76.742188 C 339.273438 75.992188 338.984375 75.617188 338.402344 75.617188 C 337.535156 75.617188 337.101563 76.230469 337.101563 77.453125 L 337.101563 83.4375 L 331.335938 83.4375 L 331.335938 76.90625 C 331.335938 76.105469 331.011719 75.703125 330.363281 75.703125 C 329.894531 75.703125 329.5625 75.839844 329.367188 76.113281 C 329.171875 76.386719 329.070313 76.867188 329.070313 77.554688 L 329.070313 83.4375 L 323.304688 83.4375 L 323.304688 71.609375 L 329.070313 71.609375 L 329.070313 72.222656 C 329.070313 72.703125 329.042969 73.15625 328.984375 73.578125 C 330.011719 72.265625 331.347656 71.609375 332.992188 71.609375 C 334.84375 71.609375 336.210938 72.425781 337.101563 74.0625 C 337.878906 72.425781 339.160156 71.609375 340.949219 71.609375 C 342.300781 71.609375 343.351563 71.980469 344.105469 72.714844 C 344.730469 73.328125 345.039063 74.253906 345.039063 75.488281 L 345.039063 83.4375 "
       id="path78" />
    <path
       style=" stroke:none;fill-rule:nonzero;fill:rgb(0%,67.83905%,93.728638%);fill-opacity:1;"
       d="M 355.21875 77.609375 C 355.21875 75.976563 354.730469 75.15625 353.757813 75.15625 C 352.898438 75.15625 352.46875 75.929688 352.46875 77.472656 C 352.46875 79.085938 352.910156 79.890625 353.800781 79.890625 C 354.746094 79.890625 355.21875 79.132813 355.21875 77.609375 Z M 352.597656 83.4375 L 346.703125 83.4375 L 346.703125 64.984375 L 352.449219 64.984375 L 352.46875 71.6875 C 352.46875 72.234375 352.4375 72.863281 352.382813 73.570313 C 352.90625 72.855469 353.4375 72.347656 353.972656 72.046875 C 354.527344 71.757813 355.226563 71.609375 356.066406 71.609375 C 357.632813 71.609375 358.847656 72.140625 359.707031 73.195313 C 360.566406 74.246094 360.996094 75.730469 360.996094 77.640625 C 360.996094 79.46875 360.554688 80.890625 359.664063 81.90625 C 358.785156 82.929688 357.566406 83.4375 356.007813 83.4375 C 355.253906 83.4375 354.613281 83.386719 354.085938 83.285156 C 353.828125 83.148438 353.5625 82.960938 353.292969 82.726563 C 353.019531 82.496094 352.742188 82.203125 352.46875 81.851563 C 352.476563 81.992188 352.484375 82.109375 352.496094 82.207031 C 352.503906 82.308594 352.515625 82.390625 352.523438 82.453125 L 352.597656 83.4375 "
       id="path80" />
    <path
       style=" stroke:none;fill-rule:nonzero;fill:rgb(0%,67.83905%,93.728638%);fill-opacity:1;"
       d="M 377.613281 83.4375 L 371.636719 83.4375 L 371.636719 76.640625 L 368.78125 76.640625 L 368.78125 83.4375 L 362.804688 83.4375 L 362.804688 66.546875 L 368.78125 66.546875 L 368.78125 72.59375 L 371.636719 72.59375 L 371.636719 66.546875 L 377.613281 66.546875 L 377.613281 83.4375 "
       id="path82" />
    <path
       style=" stroke:none;fill-rule:nonzero;fill:rgb(0%,67.83905%,93.728638%);fill-opacity:1;"
       d="M 254.089844 75.984375 C 254.089844 75.828125 254.054688 75.683594 253.988281 75.554688 C 253.921875 75.421875 253.828125 75.308594 253.707031 75.214844 C 253.589844 75.121094 253.449219 75.046875 253.285156 74.992188 C 253.121094 74.933594 252.945313 74.90625 252.753906 74.90625 C 252.355469 74.90625 252.027344 75.007813 251.78125 75.210938 C 251.53125 75.414063 251.40625 75.671875 251.40625 75.984375 Z M 253.976563 79.460938 L 259.597656 79.546875 C 259.195313 80.84375 258.414063 81.820313 257.253906 82.472656 C 256.09375 83.128906 254.574219 83.453125 252.703125 83.453125 C 250.480469 83.453125 248.738281 82.949219 247.472656 81.941406 C 246.214844 80.917969 245.589844 79.519531 245.589844 77.746094 C 245.589844 75.945313 246.265625 74.476563 247.617188 73.339844 C 248.96875 72.199219 250.710938 71.625 252.84375 71.625 C 254.96875 71.625 256.660156 72.179688 257.921875 73.285156 C 259.183594 74.402344 259.8125 75.878906 259.8125 77.71875 L 259.785156 78.46875 L 251.355469 78.46875 C 251.421875 79.605469 251.871094 80.171875 252.703125 80.171875 C 253.351563 80.171875 253.777344 79.9375 253.976563 79.460938 "
       id="path84" />
    <path
       style=" stroke:none;fill-rule:nonzero;fill:rgb(0%,67.83905%,93.728638%);fill-opacity:1;"
       d="M 10.585938 39.804688 L 17.46875 39.804688 L 17.46875 15.785156 C 17.46875 15.785156 17.523438 14.238281 18.625 14.238281 C 19.726563 14.238281 19.726563 15.785156 19.726563 15.785156 L 19.726563 39.804688 L 26.777344 39.804688 L 26.71875 15.851563 C 26.71875 15.851563 26.664063 14.171875 27.710938 14.171875 C 28.757813 14.171875 28.648438 15.785156 28.648438 15.785156 L 28.648438 39.804688 L 36.082031 39.804688 L 36.082031 5.492188 L 17.242188 5.425781 C 17.242188 5.425781 10.601563 5.464844 10.585938 14.171875 C 10.578125 20.765625 10.585938 39.804688 10.585938 39.804688 "
       id="path86" />
    <path
       style=" stroke:none;fill-rule:nonzero;fill:rgb(0%,67.83905%,93.728638%);fill-opacity:1;"
       d="M 46.710938 21.003906 L 47.109375 21.027344 C 48.167969 21.027344 49.011719 20.683594 49.636719 19.996094 C 50.265625 19.304688 50.578125 18.363281 50.578125 17.164063 C 50.578125 15.980469 50.269531 15.019531 49.65625 14.28125 C 49.042969 13.523438 48.265625 13.148438 47.316406 13.148438 L 46.710938 13.148438 Z M 46.710938 39.925781 L 37.996094 39.925781 L 37.996094 5.664063 L 46.441406 5.664063 C 50.648438 5.664063 53.765625 6.554688 55.800781 8.335938 C 58.195313 10.4375 59.394531 13.355469 59.394531 17.089844 C 59.394531 21.160156 58.121094 24.191406 55.570313 26.191406 C 53.828125 27.539063 51.328125 28.210938 48.070313 28.210938 L 46.710938 28.210938 L 46.710938 39.925781 "
       id="path88" />
    <path
       style="fill:none;stroke-width:15;stroke-linecap:butt;stroke-linejoin:miter;stroke:rgb(0%,67.83905%,93.728638%);stroke-opacity:1;stroke-miterlimit:4;"
       d="M 104.648438 466.270313 L 809.296875 466.270313 "
       transform="matrix(0.1,0,0,-0.1,0,88.92)"
       id="path90" />
    <path
       style="fill:none;stroke-width:15;stroke-linecap:butt;stroke-linejoin:miter;stroke:rgb(0%,67.83905%,93.728638%);stroke-opacity:1;stroke-miterlimit:4;"
       d="M 459.6875 125.098438 L 459.6875 627.364063 "
       transform="matrix(0.1,0,0,-0.1,0,88.92)"
       id="path92" />
    <path
       style=" stroke:none;fill-rule:nonzero;fill:rgb(0%,67.83905%,93.728638%);fill-opacity:1;"
       d="M 48.335938 32.8125 C 48.335938 32.8125 57.484375 34.335938 62.667969 25.039063 C 67.851563 15.738281 69.792969 12.511719 69.792969 12.511719 C 69.792969 12.511719 73.285156 5.523438 82.945313 5.523438 C 82.976563 5.523438 82.976563 13.121094 82.976563 13.121094 C 82.976563 13.121094 76.996094 14.0625 75.015625 17.871094 C 73.035156 21.683594 67.394531 31.441406 67.394531 31.441406 C 67.394531 31.441406 63.066406 39.84375 48.339844 39.894531 C 48.292969 39.894531 48.335938 32.8125 48.335938 32.8125 "
       id="path94" />
    <path
       style=" stroke:none;fill-rule:nonzero;fill:rgb(0%,67.83905%,93.728638%);fill-opacity:1;"
       d="M 13.414063 0.335938 C 13.285156 0.339844 13.277344 0.339844 13.375 0.34375 C 13.398438 0.339844 13.414063 0.335938 13.414063 0.335938 Z M 93.125 0.246094 C 92.125 0.246094 34.191406 0.351563 17.664063 0.351563 C 15.234375 0.351563 13.699219 0.347656 13.375 0.34375 C 12.738281 0.433594 4.703125 1.75 4.582031 10.953125 C 4.472656 19.546875 4.582031 74.640625 4.582031 74.640625 C 4.582031 74.640625 4.90625 83.246094 0 83.511719 L 78.484375 83.511719 C 78.484375 83.511719 78.847656 83.554688 79.441406 83.554688 C 82.03125 83.554688 88.980469 82.726563 89.113281 73.824219 C 89.257813 64.253906 88.949219 7.523438 88.949219 7.523438 C 88.949219 7.523438 88.941406 0.261719 93.125 0.246094 Z M 93.136719 0.246094 C 93.132813 0.246094 93.128906 0.246094 93.125 0.246094 C 93.132813 0.246094 93.136719 0.246094 93.136719 0.246094 Z M 86.503906 3.257813 C 86.128906 4.605469 85.949219 6.074219 85.949219 7.539063 C 85.953125 8.105469 86.253906 64.347656 86.113281 73.78125 C 86.046875 78.277344 83.800781 80.554688 79.441406 80.554688 C 79.074219 80.554688 78.84375 80.53125 78.839844 80.53125 L 78.664063 80.511719 L 6.820313 80.511719 C 7.457031 78.480469 7.640625 76.296875 7.582031 74.585938 C 7.582031 72.652344 7.476563 19.355469 7.582031 10.992188 C 7.664063 4.855469 12.238281 3.585938 13.59375 3.34375 C 13.992188 3.347656 14.984375 3.351563 17.664063 3.351563 C 30.820313 3.351563 70.632813 3.285156 86.503906 3.257813 "
       id="path96" />
  </g>
</svg>
